# xmcd CD database file
#
# Track frame offsets:
#	150
#	17213
#	32208
#	46829
#	60958
#	74709
#	88549
#	101601
#	115461
#	129415
#	143933
#	157385
#	171108
#	185134
#	198506
#	213346
#	226492
#	238092
#	251503
#	264243
#	277944
#	290762
#	302925
#	315456
#	327407
#	340213
#
# Disc length: 4693 seconds
#
# Revision: 1
# Processed by: cddbd v1.5.2PL0 Copyright (c) Steve Scherf et al.
# Submitted via: CDex 1.51
#
DISCID=9012531a
DTITLE=Gus Cannon - Memphis Jug Band and Cannon's Jug Stompers, Disc D
DYEAR=1928
DGENRE=Blues
TTITLE0=Minglewood Blues
TTITLE1=Big Railroad Blues
TTITLE2=Madison Street Rag
TTITLE3=Springdale Blues
TTITLE4=Ripley Blues
TTITLE5=Pig Ankle Strut
TTITLE6=Noah's Blues
TTITLE7=Hollywood Rag
TTITLE8=Heart Breakin' Blues
TTITLE9=Feather Bed
TTITLE10=Cairo Rag
TTITLE11=Bugle Call Rag
TTITLE12=Viola Lee Blues
TTITLE13=Riley's Wagon
TTITLE14=Last Chance Blues
TTITLE15=Tired Chicken Blues
TTITLE16=Going To Germany
TTITLE17=Walk Right In
TTITLE18=Mule Get Up In The Alley
TTITLE19=Rooster's Crowing Blues, The
TTITLE20=Jonestown Blues
TTITLE21=Pretty Mama Blues
TTITLE22=Bring It With You When You Come
TTITLE23=Wolf River Blues
TTITLE24=Money Never Runs Out
TTITLE25=Prison Wall Blues
EXTD=YEAR: 1928
EXTT0=
EXTT1=
EXTT2=
EXTT3=
EXTT4=
EXTT5=
EXTT6=
EXTT7=
EXTT8=
EXTT9=
EXTT10=
EXTT11=
EXTT12=
EXTT13=
EXTT14=
EXTT15=
EXTT16=
EXTT17=
EXTT18=
EXTT19=
EXTT20=
EXTT21=
EXTT22=
EXTT23=
EXTT24=
EXTT25=
PLAYORDER=
